<?xml version="1.0" standalone="no"?>
<!DOCTYPE svg PUBLIC "-//W3C//DTD SVG 20010904//EN"
 "http://www.w3.org/TR/2001/REC-SVG-20010904/DTD/svg10.dtd">
<svg version="1.0" xmlns="http://www.w3.org/2000/svg"
 width="260.000000pt" height="260.000000pt" viewBox="0 0 260.000000 260.000000"
 preserveAspectRatio="xMidYMid meet">
<metadata>
Created by potrace 1.11, written by Peter Selinger 2001-2013
</metadata>
<g transform="translate(0.000000,260.000000) scale(0.100000,-0.100000)"
fill="#000000" stroke="none">
<path d="M609 2395 c-235 -23 -444 -47 -465 -52 -26 -6 -43 -17 -51 -33 -15
-30 -17 -209 -3 -294 11 -66 10 -69 -22 -71 -15 -1 -24 -10 -29 -28 -12 -46
-20 -230 -12 -282 8 -46 11 -51 51 -70 l43 -20 -31 -30 c-16 -16 -30 -34 -30
-40 0 -12 754 -1363 769 -1378 5 -5 302 136 755 359 678 335 747 371 761 400
24 51 37 212 25 328 -11 120 -22 162 -50 191 l-20 22 104 89 c104 88 122 114
90 132 -15 9 -16 19 -4 106 12 93 14 97 47 117 29 18 34 26 31 53 -3 30 -6 32
-72 45 l-69 15 7 89 c3 50 6 112 6 139 0 35 4 48 15 48 18 0 35 31 35 64 0 28
-6 30 -140 45 -177 21 -1238 103 -1291 100 -13 -1 -216 -21 -450 -44z m711 5
c223 -16 486 -37 794 -65 147 -14 275 -25 285 -26 9 0 11 -3 5 -5 -17 -7
-1017 -246 -1034 -247 -20 -2 -1181 266 -1176 271 9 9 875 90 921 86 28 -2
120 -9 205 -14z m-567 -219 c324 -77 590 -141 592 -143 2 -1 -4 -32 -12 -68
-20 -79 -23 -391 -6 -460 7 -24 11 -45 10 -46 -4 -4 -1047 409 -1153 457 -34
15 -64 34 -67 43 -14 35 -29 204 -24 264 5 68 18 92 51 92 11 0 286 -63 609
-139z m1677 32 c0 -10 -5 -87 -12 -170 -10 -134 -14 -155 -32 -171 -16 -15
-570 -238 -943 -380 -40 -15 -44 -15 -60 1 -16 16 -18 40 -17 230 1 117 5 225
11 241 8 26 14 30 54 33 24 1 251 54 504 117 253 63 468 115 478 115 10 1 17
-6 17 -16z m-303 -19 c-3 -3 -12 -4 -19 -1 -8 3 -5 6 6 6 11 1 17 -2 13 -5z
m-40 -10 c-3 -3 -12 -4 -19 -1 -8 3 -5 6 6 6 11 1 17 -2 13 -5z m-38 -8 c-7
-8 -607 -156 -629 -156 -11 0 -20 5 -20 11 0 5 8 9 18 7 9 -1 23 1 31 6 15 10
554 134 585 135 11 1 17 -1 15 -3z m-674 -163 c-4 -10 -11 -31 -15 -48 -6 -23
-8 -25 -9 -8 -1 25 15 73 25 73 3 0 3 -8 -1 -17z m-28 -130 c-3 -10 -5 -2 -5
17 0 19 2 27 5 18 2 -10 2 -26 0 -35z m1125 -173 l-17 -94 -126 -106 c-141
-118 -569 -466 -601 -488 l-20 -15 4 177 c2 107 8 180 15 187 11 11 757 439
759 436 1 -1 -5 -45 -14 -97z m-1970 -581 c127 -195 236 -367 243 -384 12 -29
61 -432 54 -439 -5 -5 -673 1169 -677 1190 -2 8 1 21 8 28 9 11 22 9 76 -14
l65 -27 231 -354z m-50 -269 c400 -702 381 -666 371 -684 -5 -9 -127 200 -368
631 -323 578 -389 701 -357 668 5 -5 164 -282 354 -615z m397 385 c281 -115
507 -212 503 -216 -4 -4 -135 -55 -292 -114 -157 -59 -291 -112 -298 -118 -7
-5 -14 -8 -16 -6 -13 16 -426 661 -426 665 0 7 -56 30 529 -211z m1381 -150
c7 -106 9 -190 4 -195 -10 -8 -1368 -600 -1396 -607 -20 -6 -20 -6 -48 241
-24 211 -23 196 -8 196 7 0 163 59 348 131 l335 132 58 -22 c31 -11 83 -31
115 -43 l58 -22 125 99 c68 54 162 130 208 168 77 65 168 120 182 111 3 -2 12
-87 19 -189z m-140 -311 c-158 -77 -927 -445 -1124 -537 -105 -49 -109 -50
-122 -32 -33 45 -103 11 941 456 242 103 445 188 450 188 6 0 -60 -34 -145
-75z"/>
</g>
</svg>
